<?xml version="1.0" encoding="UTF-8" standalone="no"?>
<svg
   version="1.1"
   id="Layer_1"
   x="0px"
   y="0px"
   width="1024"
   viewBox="0 0 1024 300"
   enable-background="new 0 0 1024 1024"
   xml:space="preserve"
   height="300"
   xmlns="http://www.w3.org/2000/svg"
   xmlns:svg="http://www.w3.org/2000/svg"><defs
   id="defs5" />
<g
   id="g4"
   transform="matrix(1.1759006,0,0,1.1759006,6.613826,-433.58588)"
   style="fill:#f9f9f9"><path
     fill="#000000"
     opacity="1"
     stroke="none"
     d="m 132.7667,518.65582 c 0.71634,-0.7058 1.27494,-0.55091 1.67732,0.33926 0.19993,0.44232 0.45512,0.86771 0.59429,1.32826 2.07465,6.86573 5.15613,13.41558 6.41459,20.53812 1.14664,6.48974 1.3611,13.02481 1.0231,19.58927 -0.0221,0.42854 -0.14017,0.86212 -0.27655,1.27244 -0.19646,0.59113 -0.37454,1.36599 -1.17931,1.23382 -0.74782,-0.1228 -1.02813,-0.79683 -1.07066,-1.5446 -0.0992,-1.74394 -0.16694,-3.49163 -0.33407,-5.22944 -0.55495,-5.77102 -1.74878,-11.07842 -6.46303,-21.27819 -0.11751,-0.25422 -0.35158,-0.46952 -0.80608,-0.44439 -1.20801,1.67166 -1.65798,3.72256 -2.21515,5.69608 -1.64322,5.82018 -2.87151,11.7399 -3.53333,17.74979 -0.39499,3.58669 0.16006,7.16598 0.94832,10.67198 1.01922,4.53303 2.23052,9.02674 4.54537,13.10353 2.05294,3.61563 4.1379,7.22079 6.75946,10.47563 0.70519,0.87556 1.25894,0.64175 1.84011,-0.13749 3.05029,-4.56468 5.96567,-9.20869 7.90579,-14.36834 1.6201,-4.4391 3.3295,-8.86997 3.99119,-13.59166 0.47147,-3.36438 0.78015,-6.74388 0.71359,-10.15094 -0.21886,-11.20272 -3.25337,-21.73971 -7.52224,-31.98843 -1.92078,-4.61144 -3.80384,-9.25374 -6.4188,-13.52053 -3.67013,-5.98851 -8.13139,-11.0627 -14.87584,-13.95752 -8.84708,-3.7973 -17.69229,-7.5682 -27.158674,-9.47323 -9.376742,-1.88702 -18.743797,-2.0145 -28.119655,0.56612 -7.271044,2.00128 -14.0009,5.09775 -20.511879,8.77796 -1.046425,0.59149 -1.977912,1.38888 -2.950858,2.10689 -0.661317,0.48803 -0.695437,0.97286 -0.0032,1.5082 1.034851,0.80026 1.945716,1.75297 3.088066,2.42401 4.128523,2.42521 8.088674,5.15106 12.738747,6.5944 5.164307,1.60299 10.389616,2.69419 15.819263,2.94505 7.723322,0.35684 15.1149,-0.87173 22.179766,-4.00917 1.013424,-0.45004 1.983844,-1.00312 2.949034,-1.55266 0.36695,-0.20891 0.79908,-0.4736 0.79501,-0.9684 -0.004,-0.54531 -0.52681,-0.67076 -0.91062,-0.8191 -8.286042,-3.20179 -16.736351,-5.66124 -25.732247,-5.60945 -0.536648,0.003 -1.078644,0.0266 -1.546356,-0.29569 -0.415673,-0.28645 -0.751971,-0.64461 -0.660453,-1.20121 0.08209,-0.49931 0.464529,-0.73094 0.914036,-0.82256 0.665098,-0.13553 1.33486,-0.28556 2.00935,-0.33212 13.864912,-1.30141 26.80514,2.18512 39.61349,6.98593 4.21278,1.67293 3.55536,1.95236 0.97704,4.30168 -2.16633,1.97392 -4.71943,3.39659 -7.33062,4.7638 -2.77264,1.45175 -5.52908,2.89753 -8.47781,3.94969 -3.921374,1.39921 -7.954113,2.33367 -12.049986,3.09298 -5.721763,1.0607 -11.477996,1.16562 -17.241739,0.8614 -21.72413,-1.14661 -35.844763,-15.60021 -38.382575,-18.39705 -0.391473,-0.43146 -0.821,-0.83255 -1.177673,-1.29069 -1.041646,-1.33779 -0.956118,-2.32824 0.374979,-3.37527 4.682951,-3.68361 9.246653,-7.5119 14.275539,-10.75419 8.810269,-5.68029 18.500155,-8.28481 28.868542,-8.85427 15.131223,-0.83109 29.041383,3.62981 42.599653,9.66573 1.82547,0.81268 3.83001,1.94666 5.87761,2.25758 0.26892,-0.87117 -0.26773,-2.10375 -0.53943,-2.79696 -3.96278,-10.11055 -7.07178,-20.47067 -8.59201,-31.23631 -1.56308,-11.06908 -0.63109,-22.00094 2.65697,-32.68801 2.12151,-6.8955 5.69029,-13.01186 10.22006,-18.63714 3.44834,-4.2823 7.14321,-8.31434 11.00301,-12.21412 2.00819,-2.02899 2.83793,-2.02647 4.73018,0.0382 14.34747,15.65517 18.29285,37.93047 18.28693,43.22127 -0.1998,18.78925 -6.10964,33.31706 -18.98093,47.01039 -1.58062,1.67487 -2.84238,1.37272 -3.69287,-0.76446 -2.23116,-7.98193 -4.63109,-16.11844 -5.39774,-24.40104 -0.44238,-6.76513 -0.1828,-13.48686 0.8856,-20.17821 0.091,-0.5703 0.245,-1.14134 0.45496,-1.67872 0.19753,-0.50552 0.53464,-1.0069 1.17901,-0.86746 0.63045,0.1364 0.94541,0.63832 1.02004,1.27355 0.0169,0.14339 0.008,0.29136 -0.003,0.43618 -0.63994,8.52312 0.38199,16.84787 2.81133,25.0374 0.6521,2.19825 1.14282,4.45229 1.94756,6.72288 0.37292,0.12051 0.53578,-0.28636 0.69605,-0.61603 2.31331,-4.75844 4.56342,-9.53879 6.09478,-14.62883 2.46444,-8.19153 3.36543,-16.51824 1.92294,-24.97412 -0.98939,-5.79981 -2.75557,-11.37103 -5.7416,-16.52753 -1.2089,-2.08763 -2.07261,-4.36188 -3.52605,-6.33939 -1.16591,-1.58628 -1.137,-1.60532 -2.37895,-0.14355 -1.35234,1.59173 -2.619,3.22951 -3.82684,4.93608 -4.85131,6.85446 -8.3472,14.33833 -10.65369,22.39335 -3.41013,11.90932 -2.71398,23.80118 0.11644,35.69868 2.0039,8.42327 4.79445,16.59069 8.00911,24.61014 0.62799,1.56664 1.90165,2.90259 3.00109,4.2436 0.95124,1.16022 2.09728,2.1586 3.12308,3.26029 2.16506,2.32526 4.91656,3.78751 7.79643,4.88266 5.62068,2.13742 11.2867,4.1673 17.06718,5.85434 11.61695,3.3904 23.40498,5.19943 35.52467,3.77552 6.98298,-0.82041 13.61008,-2.97431 19.85513,-6.11176 2.5932,-1.30278 4.95724,-3.13509 7.31845,-4.92228 2.53885,-1.92166 4.69653,-4.1731 6.98978,-6.31756 0.78142,-0.73071 0.75767,-1.23512 0.009,-2.0239 -1.92933,-2.03385 -4.28627,-3.38515 -6.68264,-4.77046 -2.72807,-1.57707 -5.48207,-2.95934 -8.56039,-3.71102 -4.34496,-1.06099 -8.75117,-1.71947 -13.20675,-1.81948 -4.35943,-0.0978 -8.70257,0.42834 -12.961,1.35237 -4.62303,1.00313 -9.16849,2.32539 -13.60255,4.00113 -2.50582,0.94701 -4.6387,2.54631 -6.89433,3.9281 -0.78367,0.48006 -0.46345,1.00907 0.18455,1.28416 1.025,0.43514 2.06981,0.86489 3.14751,1.12776 8.78599,2.60561 17.81013,4.2121 26.98443,3.56924 0.92026,-0.0755 1.97754,-0.15244 2.16746,0.88311 0.20735,1.13055 -0.90606,1.51546 -1.79965,1.6999 -15.14603,3.28331 -27.56994,2.02944 -43.50647,-3.72967 -2.17235,-0.78504 -2.50987,-1.01862 -1.16488,-2.91614 7.63315,-9.28619 18.87334,-15.18803 30.26008,-18.53817 18.77672,-5.35763 37.1398,1.77411 49.44022,8.88292 3.8801,2.24243 7.33091,5.08572 10.47607,8.28319 0.87852,0.89315 1.00472,1.8204 0.0297,2.79155 -17.81075,19.79197 -41.6393,28.57672 -68.20761,24.48697 -8.95007,-1.69324 -17.64989,-4.18762 -26.14493,-7.43432 -2.35162,-0.89874 -4.66379,-1.90024 -7.00455,-2.82816 -0.56936,-0.22571 -1.16187,-0.46303 -1.99506,-0.28925 2.94971,5.43916 5.68893,9.87024 8.52803,15.96551 2.95545,6.34511 4.74585,13.17073 5.97278,20.06661 1.96901,11.06688 1.51753,22.04163 -1.96319,32.80762 -1.96224,6.06927 -5.28986,11.38455 -8.89105,16.59622 -2.32836,3.36961 -5.02994,6.40723 -7.59734,9.56555 -1.38235,1.70053 -1.90952,1.6752 -3.57791,0.31449 -3.76797,-3.07299 -6.65577,-6.92691 -9.3572,-10.8915 -3.11231,-4.56762 -5.84728,-9.35854 -7.76038,-14.59725 -1.70717,-4.67488 -2.76607,-9.48951 -3.26401,-14.40373 -0.70279,-6.93671 -0.35403,-13.83515 1.15874,-20.6833 1.02864,-4.6566 2.72901,-9.04784 4.85711,-13.26026 2.2747,-4.55255 5.42572,-8.35706 9.004,-11.89389 z"
     id="path1"
     style="fill:#f9f9f9;fill-opacity:1;stroke-width:0.291496;stroke-dasharray:none" /><path
     fill="#000000"
     opacity="1"
     stroke="none"
     d="m 169.11836,460.75743 c -0.11886,0.37974 -0.1756,0.67336 -0.31609,0.91909 -0.22611,1.76937 -1.54864,1.13211 -1.40914,-0.4157 0.50406,-6.06408 1.60431,-12.01334 3.30696,-17.86287 1.48274,-5.09401 3.82667,-9.76504 6.89701,-14.03842 2.61069,-3.63363 5.87059,-6.72452 9.1756,-9.72729 6.01872,-5.4683 13.21998,-8.84307 20.91654,-11.08768 4.69391,-1.36891 9.57014,-2.09757 14.49483,-2.24876 0.63019,-0.0193 1.26308,-0.008 1.89008,-0.0637 1.87147,-0.16555 2.37635,0.16457 2.55459,2.06247 0.26849,2.85872 0.1076,5.72176 -0.086,8.58395 -0.49551,7.32344 -1.8556,14.45869 -4.95638,21.14721 -3.27695,7.06854 -8.11543,12.99297 -14.15831,17.86161 -6.70632,5.40316 -14.10066,9.59368 -22.51047,11.7927 -4.8713,1.27374 -9.83628,1.75752 -14.85874,1.71269 -1.29887,-0.0116 -1.90107,-0.76615 -1.3073,-1.86927 4.8012,-9.84195 12.8047,-17.19896 20.81422,-24.37641 1.25778,-1.13081 2.62519,-2.14661 3.99586,-3.14152 0.53558,-0.38876 1.24423,-0.72075 1.8648,-0.11582 0.63061,0.61475 0.12424,1.18159 -0.23733,1.67386 -3.81348,5.19202 -7.22646,10.69192 -11.77289,15.3225 -0.4667,0.47529 -0.88019,1.01828 -1.11858,1.76511 0.64452,0.27643 1.23841,0.0803 1.83815,-0.0383 8.73906,-1.72857 16.00315,-6.00562 21.9299,-12.62752 6.26213,-6.99661 10.04644,-15.14376 11.43305,-24.41762 0.25121,-1.68021 0.52027,-3.35874 0.72139,-5.04516 0.19438,-1.62998 -0.17929,-1.97623 -1.85225,-1.80493 -2.42302,0.24811 -4.77196,0.87856 -7.13131,1.4423 -4.94315,1.18108 -9.60641,3.09351 -13.9608,5.69151 -4.1741,2.49043 -7.55811,5.94062 -10.67243,9.6042 -6.53068,8.42479 -11.54097,19.35226 -15.48492,29.30172 z"
     id="path2"
     style="fill:#f9f9f9;fill-opacity:1;stroke-width:0.29143" /><path
     fill="#000000"
     opacity="1"
     stroke="none"
     d="m 76.184034,542.43352 c -8.806466,6.44043 -13.925297,15.1042 -16.356105,25.48582 -0.509122,2.17438 -1.04535,4.3446 -1.2217,6.57966 -0.125578,1.59157 0.101372,1.81669 1.642677,1.68287 10.065928,-0.87407 19.230937,-4.16475 27.162533,-10.48471 2.836834,-2.26043 5.351021,-4.90514 7.58516,-7.82002 2.117407,-2.76263 4.222957,-5.52678 6.189581,-8.39893 2.92351,-4.26968 5.72041,-8.59157 7.56219,-13.48594 0.48214,-1.28126 0.89162,-2.90895 2.59718,-3.48244 0.74156,0.94431 0.42851,1.9237 0.35752,2.84797 -0.63086,8.21395 -3.61622,15.59807 -7.68706,22.68194 -3.36687,5.85883 -7.754854,10.81234 -12.792943,15.17107 -3.854014,3.33432 -8.263257,5.88356 -13.133309,7.60494 -8.308845,2.93683 -16.855579,4.07849 -25.624778,3.65126 -2.286877,-0.11141 -2.153424,-0.26763 -2.153274,-2.57991 2.28e-4,-4.74734 0.788142,-9.39246 1.772535,-13.98559 1.112574,-5.19126 3.108752,-10.11582 5.729663,-14.73675 2.302265,-4.05913 5.126715,-7.7164 8.400472,-11.10377 6.470837,-6.69548 14.189591,-11.03837 23.160509,-13.26367 6.189511,-1.53538 12.449565,-2.59002 18.857735,-2.49994 0.43662,0.006 0.87884,-0.0169 1.3084,0.0442 0.86523,0.123 1.8027,0.2002 2.1662,1.19246 0.37194,1.01539 0.0281,1.94522 -0.63733,2.69965 -7.63774,9.15809 -16.690821,16.65685 -26.392324,23.51958 -0.532925,0.37459 -1.157204,0.95672 -1.805539,0.28518 -0.59731,-0.61872 -0.140813,-1.29773 0.196352,-1.87041 0.835867,-1.41976 9.583802,-11.4983 13.932527,-15.41707 0.41746,-0.37618 0.84995,-0.80064 0.85956,-1.74208 -7.757618,0.96415 -15.151538,2.67175 -21.676432,7.42464 z"
     id="path3"
     style="fill:#f9f9f9;fill-opacity:1;stroke-width:0.29143" /><path
     fill="#000000"
     opacity="1"
     stroke="none"
     d="m 62.254474,419.95483 c 0.465806,6.48521 1.637645,12.71842 4.332769,18.5584 9.49697,20.57895 30.151653,25.19195 34.261777,30.76827 -1.125004,0.0814 -2.218794,0.15649 -3.270904,-0.1183 -6.968771,-1.82001 -13.818589,-3.99238 -19.900001,-7.97979 -10.285861,-6.74418 -15.773883,-16.56002 -16.15229,-17.25105 -4.895288,-8.93935 -7.10618,-18.49686 -7.014434,-28.65117 0.01979,-2.18875 0.229178,-4.35878 0.311928,-6.53904 0.05045,-1.32882 0.840891,-1.72572 2.022964,-1.73779 3.08515,-0.0315 6.065523,0.66372 9.069635,1.23246 5.369643,1.0166 10.55749,2.57908 15.44792,5.04031 6.431911,3.23702 11.786084,7.75143 16.164168,13.4858 6.538604,8.5642 10.568774,18.15247 11.867864,28.83336 0.50432,4.14654 0.36563,8.33866 -0.16035,12.49714 -0.1954,1.54499 -0.81639,1.71558 -2.13624,0.92975 -3.21391,-1.91356 -6.16168,-4.1149 -8.778764,-6.81781 -3.621204,-3.74 -6.68183,-7.90269 -9.683986,-12.1248 -1.600886,-2.25141 -3.215446,-4.49251 -4.584268,-6.89773 -0.143209,-0.25166 -0.337662,-0.48129 -0.440546,-0.74736 -0.251103,-0.64935 -0.178751,-1.26933 0.417329,-1.69357 0.607475,-0.43237 1.059961,-0.0526 1.533018,0.35168 4.657898,3.98104 8.81369,8.47826 13.170243,12.76902 0.39961,0.39356 0.68309,0.95015 1.282614,1.07102 0.33291,-0.12165 0.32546,-0.38259 0.31373,-0.61768 -0.407604,-8.17014 -3.292624,-15.38949 -8.309309,-21.81259 -2.073083,-2.65426 -4.468649,-4.99012 -6.9479,-7.24063 -2.328529,-2.11369 -5.22885,-3.31551 -7.991389,-4.71879 -3.963903,-2.01351 -8.216237,-3.21111 -12.503013,-4.28978 -1.944474,-0.48927 -2.336823,-0.15756 -2.354596,1.85066 -0.0051,0.58219 0.01986,1.16465 0.03203,1.85001 z"
     id="path5"
     style="fill:#f9f9f9;fill-opacity:1;stroke-width:0.29143" /><path
     fill="#000000"
     opacity="1"
     stroke="none"
     d="m 193.13633,547.97995 c 0.55946,0.56593 1.19556,1.17578 0.57554,2.00438 -0.65115,0.87021 -1.50372,0.48264 -2.22509,0.0616 -5.89518,-3.44063 -15.52368,-10.76358 -16.6379,-11.9318 -0.26669,-0.27962 -0.60478,-0.49852 -1.07536,-0.30266 -0.36696,0.7239 0.008,1.41044 0.21205,2.07413 3.87196,14.28546 12.60644,25.89119 29.61773,30.0101 4.16244,1.00786 8.39805,1.5617 12.68824,1.56353 1.84028,6.8e-4 2.16594,-0.36664 1.7398,-2.19764 -2.48285,-10.66806 -7.13641,-20.06607 -15.83809,-27.13035 -2.88776,-2.34437 -6.19025,-3.94829 -9.35421,-5.82059 -3.20871,-1.89881 -6.49477,-3.62501 -9.83252,-5.26471 -3.32198,-1.63195 -6.66627,-3.21899 -10.01499,-4.79555 -0.58617,-0.27596 -1.31539,-0.46234 -1.1929,-1.23566 0.12425,-0.78423 0.89971,-0.77868 1.52932,-0.7874 6.33384,-0.0876 12.43856,0.99099 18.33752,3.36852 4.33238,1.74614 8.5941,3.60739 12.49411,6.19583 11.52956,7.65223 18.64073,18.28746 21.4192,31.83765 0.66256,3.23133 1.49861,6.42799 1.71583,9.74018 0.1573,2.39865 -0.29442,3.42968 -3.03555,3.60018 -9.41802,0.58581 -18.61872,-0.17984 -27.45539,-3.70951 -8.32537,-3.32546 -15.17851,-8.59671 -20.95097,-15.46265 -6.63535,-8.67847 -11.07987,-20.0897 -12.10515,-31.06642 -0.0716,-0.88108 -0.0802,-1.75493 0.22448,-2.59085 0.4071,-1.11705 1.47217,-1.50862 2.59596,-1.11193 9.81852,5.62474 18.19662,14.48277 26.56834,22.95159 z"
     id="path4"
     style="fill:#f9f9f9;fill-opacity:1;stroke-width:0.29143" /></g>




<g
   id="g1"
   transform="matrix(0.89851328,0,0,0.89851328,293.83731,72.169913)"
   style="fill:#f9f9f9"><path
     fill="#070707"
     opacity="1"
     stroke="none"
     d="m 254.77956,148.87073 c -0.16806,-30.05718 -0.26552,-59.716357 -0.25502,-89.375487 0.002,-4.647694 2.91235,-7.530647 6.93444,-7.488502 3.98197,0.04172 6.41278,2.876251 6.61319,7.742248 0.041,0.995716 0.006,1.99456 0.006,4.290226 8.04922,-8.254322 16.89047,-12.891296 27.83245,-11.979122 10.80994,0.901165 19.23758,5.975662 26.33142,16.233646 1.08838,-1.742653 1.7287,-3.358421 2.85767,-4.484173 11.31076,-11.278648 27.75562,-15.080982 41.37509,-9.119659 15.01737,6.573196 21.25611,18.99519 21.42221,34.768986 0.1948,18.495477 0.0595,36.994597 0.0374,55.492097 -0.007,5.89036 -2.52201,9.11767 -6.90171,9.02434 -4.3442,-0.0926 -6.88012,-3.40313 -6.88748,-9.1731 -0.0236,-18.4975 0.0155,-36.99509 -0.0174,-55.492561 -0.025,-14.052238 -9.03421,-23.749153 -22.02411,-23.799804 -13.25195,-0.05168 -24.17462,10.678001 -24.22663,23.97966 -0.0723,18.497265 0.12632,36.997425 -0.18051,55.489895 -0.0456,2.74498 -1.50644,6.36496 -3.56677,7.98709 -4.03311,3.17537 -9.51495,-0.53513 -9.74823,-6.38832 -0.24533,-6.15628 -0.0727,-12.3294 -0.0744,-18.49515 -0.003,-12.99827 0.0566,-25.99686 -0.0172,-38.994707 -0.0791,-13.918671 -9.40085,-23.704429 -22.31311,-23.578171 -13.24863,0.129555 -23.82892,10.593407 -23.87922,23.804779 -0.0717,18.830559 -0.0613,37.661749 0.0134,56.492259 0.0159,4.00522 -1.44031,6.98121 -5.35156,7.94916 -3.75058,0.92818 -6.4086,-0.95018 -7.97987,-4.88563 z"
     id="path2-1"
     style="fill:#f9f9f9" /><path
     fill="#070707"
     opacity="1"
     stroke="none"
     d="m 422.10925,66.902908 c 1.20362,-0.316635 2.49024,-0.867828 3.49069,-1.745315 17.69761,-15.522454 43.0077,-17.609772 62.06647,-5.071804 19.88217,13.079662 28.44333,37.275928 21.06198,59.527331 -7.29568,21.99308 -28.57003,36.45435 -51.92437,35.2956 -11.31498,-0.5614 -19.34125,-4.04968 -34.46494,-15.09982 -0.10831,1.66128 -0.27643,3.05987 -0.27872,4.45874 -0.0209,12.83038 0.0174,25.66092 -0.0288,38.49116 -0.0182,5.06601 -2.60627,8.13878 -6.70398,8.22403 -4.14527,0.0862 -6.99039,-2.95727 -6.99585,-7.9568 -0.0448,-40.99063 -0.0428,-81.98133 -0.004,-122.971964 0.005,-5.188481 2.57206,-8.033119 6.85193,-8.043644 4.27527,-0.01051 6.75278,2.861629 6.85996,8.007602 0.0451,2.165348 0.0154,4.332249 0.0698,6.884884 m 47.89597,73.945812 c 0.95175,-0.30589 1.91452,-0.58134 2.85357,-0.92224 15.05185,-5.4639 24.97849,-19.7163 24.91639,-35.76002 -0.0624,-16.13788 -9.93521,-30.150034 -25.09745,-35.62005 -14.92639,-5.384945 -31.83914,-0.68116 -41.99786,11.680511 -10.26721,12.493706 -11.46606,29.992729 -3.00891,43.919749 8.56973,14.11248 24.06726,20.41581 42.33426,16.70205 z"
     id="path3-5"
     style="fill:#f9f9f9" /><path
     fill="#070707"
     opacity="1"
     stroke="none"
     d="m 51.7206,66.422234 c 6.631905,2.659599 12.941227,5.175026 19.304882,7.544517 7.939583,2.956291 16.167671,5.259697 23.846398,8.773331 31.81962,14.56002 25.98637,48.139278 6.9622,63.044218 -21.26054,16.65708 -56.831394,11.55917 -72.145098,-10.68629 -1.128477,-1.6393 -2.120832,-3.39212 -3.001215,-5.17855 -2.453339,-4.97815 -1.832878,-8.17039 1.890274,-10.36982 3.508179,-2.07241 7.332596,-0.88849 9.877758,3.83456 8.769852,16.2742 31.578343,21.9151 47.727123,14.99611 4.560883,-1.95415 8.996628,-5.32451 12.188897,-9.13512 9.074111,-10.83171 6.535741,-26.15007 -5.748162,-32.978909 C 85.294922,92.192101 76.940735,89.979385 69.092278,86.81871 60.64555,83.417107 51.57288,80.966827 43.968266,76.196533 25.355162,64.520752 23.853605,40.84164 39.965675,25.874434 58.10252,9.026326 89.743362,10.283578 106.40555,28.591221 c 1.77482,1.950113 3.933,4.160019 4.37919,6.53735 0.43541,2.319767 -0.35617,5.860614 -1.98792,7.277668 -1.41567,1.229415 -4.83388,0.58406 -7.2225,0.08099 -1.20384,-0.25354 -2.074419,-2.041999 -3.117022,-3.115676 C 86.663612,27.226473 66.46965,24.982994 52.56385,33.910187 40.735981,41.503399 38.606197,58.383629 51.7206,66.422234 Z"
     id="path4-9"
     style="fill:#f9f9f9" /><path
     fill="#070707"
     opacity="1"
     stroke="none"
     d="m 700.06189,56.023277 c 35.46374,-13.394138 70.21564,9.654244 71.45007,47.259553 0.45868,13.97478 0.13721,27.9772 0.0634,41.96645 -0.0291,5.51717 -2.63788,8.66937 -6.82623,8.73133 -4.21381,0.0623 -6.66303,-3.02692 -6.80457,-8.64608 -0.0499,-1.98106 -0.008,-3.96444 -0.008,-7.1493 -2.37616,1.97346 -4.04797,3.35907 -5.71667,4.74827 -17.91656,14.91504 -41.95264,16.06919 -61.1441,2.93523 -18.94336,-12.96414 -27.29078,-37.1787 -19.88672,-58.604448 4.97625,-14.400184 14.56402,-24.808788 28.8728,-31.241005 m -4.7403,18.759018 c -1.06994,1.049149 -2.19512,2.048165 -3.20141,3.155136 -10.84857,11.933922 -12.89008,29.385589 -5.13587,43.701819 7.67487,14.1695 23.57166,21.8242 39.65644,19.09557 15.82391,-2.68439 28.2876,-15.34068 30.87243,-31.34953 2.48651,-15.399893 -4.67498,-30.615698 -18.22357,-38.719053 -13.47162,-8.057305 -29.68646,-6.699059 -43.96802,4.116058 z"
     id="path5-2"
     style="fill:#f9f9f9" /><path
     fill="#060606"
     opacity="1"
     stroke="none"
     d="m 202.76413,149.77765 c -20.84166,9.38649 -43.09885,5.28845 -58.67265,-10.56839 -14.63425,-14.9002 -18.77836,-37.86195 -10.17936,-56.401956 9.55362,-20.598255 29.21322,-32.338256 51.43219,-30.713478 26.18715,1.914959 46.35216,23.677735 47.07512,51.268204 0.36637,13.98111 0.12479,27.97977 0.0527,41.96994 -0.0281,5.45895 -2.70636,8.64084 -6.89592,8.65099 -4.2075,0.0102 -6.59276,-3.05448 -6.7337,-8.71506 -0.0489,-1.9644 -0.008,-3.93106 -0.008,-6.37644 -5.54444,3.77408 -10.64127,7.24349 -16.07056,10.88619 m -18.54242,-8.66043 c 23.43498,-2.64949 38.31128,-22.80115 33.77946,-45.758165 -4.21003,-21.326882 -26.49278,-34.548821 -47.75311,-28.335267 -17.67233,5.164925 -29.37884,23.234459 -26.68378,41.187662 3.06226,20.39922 18.48478,33.18313 40.65743,32.90577 z"
     id="path6"
     style="fill:#f9f9f9" /><path
     fill="#070707"
     opacity="1"
     stroke="none"
     d="m 521.87744,94.920181 c 5.82312,-27.602585 29.27484,-45.423073 55.76404,-42.766453 25.72308,2.579785 45.99353,24.493527 46.25476,50.510612 0.21082,20.98932 -9.06451,37.01735 -27.4433,46.99424 -18.3761,9.97544 -36.8258,8.46248 -53.64435,-3.64242 -17.14502,-12.33988 -23.97186,-29.64008 -20.93115,-51.095979 m 29.69672,40.095979 c 19.38513,12.02571 44.08288,5.92705 54.35272,-13.42147 10.34064,-19.48165 2.30048,-42.748056 -17.97455,-52.014375 -17.09143,-7.811314 -38.08478,-1.184143 -47.90539,15.122711 -10.27997,17.069654 -5.91608,37.015854 11.52722,50.313134 z"
     id="path7"
     style="fill:#f9f9f9" /><path
     fill="#020202"
     opacity="1"
     stroke="none"
     d="m 639.87531,37.001518 c 9.1e-4,-4.997555 -0.0476,-9.496238 0.0156,-13.993351 0.0736,-5.230524 2.52393,-8.065542 6.79273,-8.01501 4.29412,0.05083 6.57788,2.760482 6.58361,8.187675 0.0337,32.15226 0.0178,64.304573 0.0182,96.456868 1.2e-4,8.66279 0.041,17.32586 -0.0165,25.98828 -0.0353,5.30955 -2.39929,8.24653 -6.50885,8.34759 -4.2608,0.10478 -6.86713,-3.02888 -6.87079,-8.52078 -0.0242,-35.98389 -0.0134,-71.967797 -0.014,-108.451272 z"
     id="path8"
     style="fill:#f9f9f9" /></g><g
   id="g3"
   transform="matrix(0.89917152,0,0,0.89917152,108.45757,594.07438)"
   style="display:none"><path
     fill="#fefefe"
     opacity="1"
     stroke="none"
     d="m 568,197 c -189.28812,0 -378.07622,0 -566.932164,0 0,-65.2724 0,-130.544891 0,-195.908694 282.265474,0 564.598794,0 846.898414,0 0,65.318316 0,130.613514 0,195.908694 C 754.78833,197 661.64417,197 568,197 M 365.04849,97.500023 c -0.001,-5.830185 0.0498,-11.660942 -0.0142,-17.49044 -0.18198,-16.564114 -10.80075,-30.145222 -26.91742,-34.165242 -12.92169,-3.223095 -23.94015,0.74828 -33.58963,9.721295 -1.38043,-1.098904 -2.64047,-2.147427 -3.94681,-3.134697 -10.50909,-7.942379 -22.08566,-10.177765 -34.31826,-5.110401 -12.68604,5.25518 -20.91364,15.085918 -21.49778,28.843319 -0.9178,21.615188 -0.45091,43.294743 -0.30987,64.945333 0.0347,5.32623 4.49309,8.99834 9.55763,8.86579 4.89501,-0.12809 8.44777,-3.6931 8.92046,-8.99473 0.0885,-0.9927 0.052,-1.99743 0.0556,-2.99667 0.0696,-19.3227 0.147,-38.645369 0.19946,-57.968115 0.0235,-8.668091 7.09128,-15.898796 15.74256,-16.04797 9.56158,-0.164867 16.49267,7.160778 16.56912,17.933033 0.1253,17.656197 0.0329,35.313902 0.0433,52.970982 0.001,2.16409 -0.078,4.34298 0.13724,6.48922 0.49097,4.89551 4.23572,8.43155 8.83746,8.53942 4.67313,0.10951 8.8823,-3.67496 9.42615,-8.57645 0.16455,-1.48315 0.10071,-2.99434 0.10086,-4.49268 0.002,-18.82309 -0.0281,-37.646228 0.005,-56.469257 0.013,-7.309319 3.97861,-13.021362 10.52329,-15.422653 6.22082,-2.282475 14.21164,-0.484307 17.85968,5.232071 2.27365,3.562759 3.74978,8.258461 3.84024,12.483047 0.40283,18.814512 0.12353,37.642712 0.20663,56.465462 0.0304,6.88788 3.88904,11.05926 9.63434,10.85927 5.56702,-0.19382 8.90708,-4.24944 8.92377,-11.00096 0.0334,-13.49258 0.0105,-26.98532 0.0108,-41.477977 m 36.77518,-38.18943 c -12.97208,10.809875 -19.3071,24.731987 -19.38843,41.543397 -0.054,11.16305 -0.0134,22.32658 -0.0139,33.48988 -6.2e-4,12.9961 -0.005,25.99217 0.007,38.98827 0.001,1.49711 -0.0206,3.00898 0.16806,4.48852 0.67969,5.32904 4.81693,9.08953 9.6854,8.90442 4.94168,-0.18786 8.64163,-4.09678 8.70029,-9.74132 0.12734,-12.24414 0.0392,-24.49052 0.0392,-37.09741 30.20636,21.42832 59.99365,8.92462 73.31784,-8.1378 16.12821,-20.65314 14.57501,-49.804809 -3.67358,-68.505481 -18.19199,-18.643082 -46.85105,-20.470806 -68.8415,-3.932476 M 33.75473,150.00629 c 12.164578,-0.006 24.33194,0.1528 36.493119,-0.0535 C 92.209114,149.58035 110.0525,131.24551 110.3943,108.94565 110.72454,87.399483 94.146935,70.728287 71.401749,69.8927 64.911102,69.654259 58.314068,70.460335 51.939438,69.559242 47.609634,68.947182 42.884247,67.02256 39.566917,64.225014 32.905228,58.607124 31.51325,49.137741 35.08773,40.810692 38.595119,32.639927 45.149319,29.270201 53.794147,29.290586 c 12.8307,0.03026 25.662968,0.09393 38.491818,-0.07055 6.798294,-0.08717 10.521635,-3.592793 10.622845,-9.369076 0.0974,-5.557325 -3.34277,-9.062038 -10.1488,-9.157274 -13.989792,-0.195762 -28.024109,-0.59184 -41.970474,0.249173 -23.477398,1.415767 -40.279178,24.522017 -35.304104,47.536818 3.517025,16.269837 17.072357,28.156685 34.204658,29.462487 7.460503,0.568634 14.996769,0.06943 22.478443,0.451019 11.66626,0.595024 19.924431,9.859833 19.641617,21.622537 -0.290214,12.07022 -8.977608,21.15274 -20.608818,21.37358 -6.829658,0.12967 -13.664249,-0.0249 -20.495705,0.042 -7.324955,0.0718 -14.656002,0.10153 -21.970357,0.44682 -4.057665,0.19153 -6.949816,2.39658 -7.55826,6.65273 -0.625214,4.37346 0.875108,8.0486 4.918899,10.01924 2.005043,0.9771 4.474756,1.00067 7.658821,1.45621 m 92.07932,-68.610338 c -7.29084,21.802098 -1.71541,43.373978 14.89447,57.628158 18.15831,15.58299 37.24246,16.01274 65.00547,1.46382 1.72658,7.58499 5.13721,10.93018 10.45336,10.25278 5.60273,-0.71392 8.53775,-5.01445 8.54516,-12.60465 0.0125,-12.81586 0.0497,-25.63201 -0.0169,-38.447543 C 224.64903,86.888145 220.5056,75.45089 212.20657,65.76738 186.9538,36.301826 142.10278,44.114544 125.83405,81.39595 m 626.13501,64.90207 c 2.66796,3.86752 6.19555,5.53062 10.76928,3.84032 4.68286,-1.7307 6.37946,-5.39319 6.35474,-10.21183 -0.0709,-13.82444 0.13928,-27.65212 -0.0754,-41.473652 -0.50214,-32.333862 -29.41296,-55.677113 -61.13519,-49.5205 -25.16669,4.884331 -42.91565,29.171844 -40.64856,55.623112 2.18841,25.53207 24.14831,46.15815 49.54004,46.67599 12.28357,0.2505 23.14221,-3.66685 33.21808,-11.02597 0.59075,1.99095 1.09759,3.69887 1.97699,6.09253 M 597.39532,103.99213 c 2.35486,-28.411678 -18.38635,-53.553482 -46.12109,-55.906379 -28.51605,-2.419182 -53.77426,18.391643 -56.27884,46.369503 -2.51752,28.121686 17.92325,53.764506 45.03848,56.500536 29.24665,2.95112 54.38355,-17.28117 57.36145,-46.96366 m 27.12769,-92.756766 c -7.16638,1.542337 -9.16852,4.056105 -9.17712,11.892838 -0.0291,26.321475 -0.0422,52.643061 0.0116,78.964458 0.0122,5.9892 -0.0763,12.02028 0.56317,17.95869 1.87977,17.45903 16.67029,30.27809 34.18165,30.0034 5.67877,-0.0891 9.33605,-3.38164 9.6123,-8.65376 0.2749,-5.24646 -3.08508,-8.96508 -8.66644,-9.59133 -12.3974,-1.39099 -16.96473,-6.4096 -16.97516,-18.83015 -0.0254,-30.153094 0.004,-60.306235 -0.0186,-90.459336 -0.005,-7.014612 -1.9458,-9.433429 -9.53137,-11.28481 z"
     id="path1-9" /><path
     fill="#050505"
     opacity="1"
     stroke="none"
     d="m 365.04849,98.000015 c -3.3e-4,13.992665 0.0226,27.485405 -0.0108,40.977985 -0.0167,6.75152 -3.35675,10.80714 -8.92377,11.00096 -5.7453,0.19999 -9.60391,-3.97139 -9.63434,-10.85927 -0.0831,-18.82275 0.1962,-37.65095 -0.20663,-56.465462 -0.0905,-4.224586 -1.56659,-8.920288 -3.84024,-12.483047 -3.64804,-5.716378 -11.63886,-7.514546 -17.85968,-5.232071 -6.54468,2.401291 -10.51029,8.113334 -10.52329,15.422653 -0.0335,18.823029 -0.003,37.646167 -0.005,56.469257 -1.5e-4,1.49834 0.0637,3.00953 -0.10086,4.49268 -0.54385,4.90149 -4.75302,8.68596 -9.42615,8.57645 -4.60174,-0.10787 -8.34649,-3.64391 -8.83746,-8.53942 -0.21524,-2.14624 -0.13599,-4.32513 -0.13724,-6.48922 -0.0104,-17.65708 0.082,-35.314785 -0.0433,-52.970982 -0.0765,-10.772255 -7.00754,-18.0979 -16.56912,-17.933033 -8.65128,0.149174 -15.71903,7.379879 -15.74256,16.04797 -0.0525,19.322746 -0.12985,38.645415 -0.19946,57.968115 -0.004,0.99924 0.0329,2.00397 -0.0556,2.99667 -0.47269,5.30163 -4.02545,8.86664 -8.92046,8.99473 -5.06454,0.13255 -9.52293,-3.53956 -9.55763,-8.86579 -0.14104,-21.65059 -0.60793,-43.330145 0.30987,-64.945333 0.58414,-13.757401 8.81174,-23.588139 21.49778,-28.843319 12.2326,-5.067364 23.80917,-2.831978 34.31826,5.110401 1.30634,0.98727 2.56638,2.035793 3.94681,3.134697 9.64948,-8.973015 20.66794,-12.94439 33.58963,-9.721295 16.11667,4.02002 26.73544,17.601128 26.91742,34.165242 0.064,5.829498 0.0128,11.660255 0.0142,17.990432 z"
     id="path2-7" /><path
     fill="#050505"
     opacity="1"
     stroke="none"
     d="m 402.11151,59.100002 c 21.70261,-16.327739 50.36167,-14.500015 68.55402,4.143067 18.24859,18.700672 19.80179,47.852341 3.67358,68.505481 -13.32419,17.06242 -43.11148,29.56612 -73.31784,8.1378 0,12.60689 0.0881,24.85327 -0.0392,37.09741 -0.0587,5.64454 -3.75861,9.55346 -8.70029,9.74132 -4.86847,0.18511 -9.00571,-3.57538 -9.6854,-8.90442 -0.18869,-1.47954 -0.16668,-2.99141 -0.16806,-4.48852 -0.0119,-12.9961 -0.008,-25.99217 -0.007,-38.98827 5.4e-4,-11.1633 -0.0401,-22.32683 0.0139,-33.48988 0.0813,-16.81141 6.41635,-30.733522 19.67627,-41.753988 m 10.21225,65.116838 c 11.39984,9.28751 25.07575,11.07416 37.1687,4.33162 12.37189,-6.89804 18.13071,-17.77445 17.25681,-31.868193 -0.80338,-12.956321 -10.1164,-24.291999 -22.66544,-28.26844 -14.37137,-4.553886 -30.13553,1.194107 -37.91278,13.823906 -8.36148,13.578529 -6.22986,29.311127 6.15271,41.981107 z"
     id="path3-18" /><path
     fill="#040404"
     opacity="1"
     stroke="none"
     d="m 33.292442,150.00601 c -2.721777,-0.45526 -5.19149,-0.47883 -7.196533,-1.45593 -4.043791,-1.97064 -5.544113,-5.64578 -4.918899,-10.01924 0.608444,-4.25615 3.500595,-6.4612 7.55826,-6.65273 7.314355,-0.34529 14.645402,-0.37507 21.970357,-0.44682 6.831456,-0.0669 13.666047,0.0877 20.495705,-0.042 11.63121,-0.22084 20.318604,-9.30336 20.608818,-21.37358 C 92.092964,98.253014 83.834793,88.988205 72.168533,88.393181 64.686859,88.011589 57.150593,88.510796 49.69009,87.942162 32.557789,86.63636 19.002457,74.749512 15.485432,58.479675 10.510358,35.464874 27.312138,12.358624 50.789536,10.942857 64.735901,10.101844 78.770218,10.497922 92.76001,10.693684 c 6.80603,0.09524 10.24618,3.599949 10.1488,9.157274 -0.10121,5.776283 -3.824551,9.28191 -10.622845,9.369076 -12.82885,0.164486 -25.661118,0.100811 -38.491818,0.07055 -8.644828,-0.02039 -15.199028,3.349341 -18.706417,11.520106 -3.57448,8.327049 -2.182502,17.796432 4.479187,23.414322 3.31733,2.797546 8.042717,4.722168 12.372521,5.334228 6.37463,0.901093 12.971664,0.09502 19.462311,0.333458 22.745186,0.835587 39.322791,17.506783 38.992551,39.052952 -0.3418,22.29986 -18.185186,40.6347 -40.146451,41.00718 -12.161179,0.20626 -24.328541,0.0476 -36.955407,0.0532 z"
     id="path4-8" /><path
     fill="#050505"
     opacity="1"
     stroke="none"
     d="m 125.96101,81.02813 c 16.14177,-36.913586 60.99279,-44.726304 86.24556,-15.26075 8.29903,9.68351 12.44246,21.120765 12.50899,33.921135 0.0666,12.815535 0.0295,25.631685 0.0169,38.447545 -0.007,7.5902 -2.94243,11.89073 -8.54516,12.60465 -5.31615,0.6774 -8.72678,-2.66779 -10.45336,-10.25278 -27.76301,14.54892 -46.84716,14.11917 -65.00547,-1.46382 -16.60988,-14.25418 -22.18531,-35.82606 -14.76751,-57.99598 m 77.8281,31.02278 c 0.5563,-1.91164 1.23103,-3.79771 1.64992,-5.73901 2.98469,-13.832354 -3.63753,-28.569003 -15.81386,-35.309237 -12.18947,-6.747506 -27.9551,-5.105004 -37.58066,4.162719 -10.52354,10.13234 -13.50545,22.440117 -8.53,36.043198 4.77924,13.06663 14.66586,20.22945 28.64258,21.23362 13.17088,0.94629 24.78337,-6.48869 31.63202,-20.39129 z"
     id="path5-9" /><path
     fill="#040404"
     opacity="1"
     stroke="none"
     d="m 751.78272,145.95514 c -0.69306,-2.05078 -1.1999,-3.7587 -1.79065,-5.74965 -10.07587,7.35912 -20.93451,11.27647 -33.21808,11.02597 -25.39173,-0.51784 -47.35163,-21.14392 -49.54004,-46.67599 -2.26709,-26.451268 15.48187,-50.738781 40.64856,-55.623112 31.72223,-6.156613 60.63305,17.186638 61.13519,49.5205 0.21466,13.821532 0.005,27.649212 0.0754,41.473652 0.0247,4.81864 -1.67188,8.48113 -6.35474,10.21183 -4.57373,1.6903 -8.10132,0.0272 -10.95562,-4.1832 m -6.92158,-65.180665 c -0.83319,-1.035637 -1.61688,-2.116135 -2.5072,-3.100037 -10.37469,-11.464691 -27.24194,-14.163383 -40.5061,-6.499732 -13.10065,7.56916 -19.35773,24.422859 -14.45605,38.937954 4.9981,14.80067 19.07159,23.83638 34.47357,22.13331 24.00512,-2.65439 36.02588,-28.78456 22.99578,-51.471495 z"
     id="path6-4" /><path
     fill="#050505"
     opacity="1"
     stroke="none"
     d="m 597.34485,104.42997 c -2.92743,29.24465 -28.06433,49.47694 -57.31098,46.52582 -27.11523,-2.73603 -47.556,-28.37885 -45.03848,-56.500536 2.50458,-27.97786 27.76279,-48.788685 56.27884,-46.369503 27.73474,2.352897 48.47595,27.494701 46.07062,56.344219 m -18.8324,0.29356 c 2.39118,-18.838619 -9.53711,-35.084774 -27.59198,-37.579998 -17.57855,-2.42939 -34.18518,9.581581 -36.9732,26.741363 -2.8779,17.712655 8.84777,34.914805 25.94,38.055415 18.23047,3.34977 34.65069,-7.9137 38.62518,-27.21678 z"
     id="path7-85" /><path
     fill="#060606"
     opacity="1"
     stroke="none"
     d="m 624.90845,11.257242 c 7.20013,1.829503 9.14081,4.24832 9.14593,11.262932 0.0222,30.153101 -0.007,60.306242 0.0186,90.459336 0.0104,12.42055 4.57776,17.43916 16.97516,18.83015 5.58136,0.62625 8.94134,4.34487 8.66644,9.59133 -0.27625,5.27212 -3.93353,8.56466 -9.6123,8.65376 -17.51136,0.27469 -32.30188,-12.54437 -34.18165,-30.0034 -0.63946,-5.93841 -0.55096,-11.96949 -0.56317,-17.95869 -0.0538,-26.321397 -0.0407,-52.642983 -0.0116,-78.964458 0.009,-7.836733 2.01074,-10.350501 9.56256,-11.87096 z"
     id="path8-9" /><path
     fill="#fcfcfc"
     opacity="1"
     stroke="none"
     d="m 412.05884,123.97639 c -12.11765,-12.42953 -14.24927,-28.162128 -5.88779,-41.740657 7.77725,-12.629799 23.54141,-18.377792 37.91278,-13.823906 12.54904,3.976441 21.86206,15.312119 22.66544,28.26844 0.8739,14.093743 -4.88492,24.970153 -17.25681,31.868193 -12.09295,6.74254 -25.76886,4.95589 -37.43362,-4.57207 z"
     id="path9-0" /><path
     fill="#fcfcfc"
     opacity="1"
     stroke="none"
     d="m 203.6059,112.39076 c -6.66544,13.56275 -18.27793,20.99773 -31.44881,20.05144 -13.97672,-1.00417 -23.86334,-8.16699 -28.64258,-21.23362 -4.97545,-13.603081 -1.99354,-25.910858 8.53,-36.043198 9.62556,-9.267723 25.39119,-10.910225 37.58066,-4.162719 12.17633,6.740234 18.79855,21.476883 15.81386,35.309237 -0.41889,1.9413 -1.09362,3.82737 -1.83313,6.07886 z"
     id="path10-7" /><path
     fill="#fdfdfd"
     opacity="1"
     stroke="none"
     d="m 745.06079,81.082642 c 12.83045,22.378768 0.80969,48.508938 -23.19543,51.163328 -15.40198,1.70307 -29.47547,-7.33264 -34.47357,-22.13331 -4.90168,-14.515095 1.3554,-31.368794 14.45605,-38.937954 13.26416,-7.663651 30.13141,-4.964959 40.5061,6.499732 0.89032,0.983902 1.67401,2.0644 2.70685,3.408204 z"
     id="path11-0" /><path
     fill="#fcfcfc"
     opacity="1"
     stroke="none"
     d="m 578.42841,105.14211 c -3.89045,18.8845 -20.31067,30.14797 -38.54114,26.7982 -17.09223,-3.14061 -28.8179,-20.34276 -25.94,-38.055415 2.78802,-17.159782 19.39465,-29.170753 36.9732,-26.741363 18.05487,2.495224 29.98316,18.741379 27.50794,37.998578 z"
     id="path12-6" /></g></svg>
