<?xml version="1.0" encoding="UTF-8" standalone="no"?>
<svg
   version="1.1"
   id="Layer_1"
   x="0px"
   y="0px"
   width="100%"
   viewBox="0 0 1024 1024"
   enable-background="new 0 0 1024 1024"
   xml:space="preserve"
   xmlns="http://www.w3.org/2000/svg"
   xmlns:svg="http://www.w3.org/2000/svg"><defs
   id="defs5" />
<path
   fill="#000000"
   opacity="1"
   stroke="none"
   d="m 477.37236,604.81379 c 3.14555,-3.09927 5.59845,-2.41914 7.36534,1.48971 0.8779,1.9423 1.99851,3.81026 2.60959,5.83259 9.1101,30.14839 22.6413,58.90969 28.16739,90.18579 5.03507,28.49736 5.97676,57.19378 4.49258,86.01925 -0.0969,1.88178 -0.61552,3.78567 -1.21436,5.58744 -0.86268,2.59575 -1.64469,5.99828 -5.17851,5.4179 -3.28379,-0.53925 -4.51469,-3.49901 -4.70144,-6.78257 -0.43546,-7.65788 -0.73306,-15.33221 -1.46695,-22.96321 -2.43685,-25.34134 -7.67915,-48.64691 -28.38007,-93.43552 -0.51601,-1.11634 -1.54385,-2.06175 -3.53961,-1.9514 -5.30456,7.3405 -7.28045,16.34632 -9.72705,25.01232 -7.2156,25.55722 -12.60919,51.55154 -15.51535,77.94184 -1.73447,15.74964 0.70284,31.4668 4.16423,46.86216 4.4755,19.90519 9.79451,39.63768 19.95932,57.53945 9.01476,15.87673 18.17013,31.70751 29.68175,45.99997 3.09661,3.8447 5.52819,2.81803 8.08022,-0.60372 13.39423,-20.04417 26.19606,-40.43666 34.71542,-63.09342 7.11411,-19.49273 14.6203,-38.94931 17.52589,-59.6829 2.07029,-14.77348 3.42576,-29.61334 3.13345,-44.57421 -0.96104,-49.19272 -14.28599,-95.46214 -33.03122,-140.46573 -8.43438,-20.24948 -16.7032,-40.63447 -28.18584,-59.37056 -16.11607,-26.29641 -35.70609,-48.57789 -65.32194,-61.28944 -38.84878,-16.67448 -77.68934,-33.23304 -119.25752,-41.59828 -41.17462,-8.2862 -82.30668,-8.84596 -123.4774,2.48588 -31.92818,8.78792 -61.47993,22.38496 -90.07056,38.54529 -4.595,2.59732 -8.685292,6.09876 -12.957634,9.25163 -2.903936,2.14302 -3.053762,4.27197 -0.01399,6.62272 4.544176,3.51406 8.543914,7.69755 13.560134,10.64418 18.12893,10.64943 35.51851,22.61904 55.93764,28.95695 22.6772,7.03894 45.62227,11.83055 69.46462,12.93211 33.9142,1.56693 66.37166,-3.82786 97.39445,-17.60482 4.45011,-1.9762 8.71133,-4.40482 12.94961,-6.81793 1.61133,-0.91738 3.50887,-2.07965 3.49101,-4.2524 -0.0196,-2.39451 -2.31331,-2.94539 -3.99867,-3.59677 -36.38513,-14.05952 -73.49163,-24.85932 -112.99388,-24.63189 -2.3565,0.0134 -4.73648,0.117 -6.79027,-1.29843 -1.82528,-1.25786 -3.30201,-2.83055 -2.90014,-5.27468 0.36048,-2.19255 2.03981,-3.20966 4.01366,-3.61197 2.92054,-0.59515 5.86156,-1.25395 8.82334,-1.45841 60.88279,-5.71467 117.70513,9.59521 173.94841,30.67624 18.49892,7.34605 15.61207,8.57307 4.29031,18.88928 -9.51265,8.66776 -20.72368,14.91488 -32.1898,20.91849 -12.17506,6.37486 -24.27895,12.7235 -37.22727,17.34367 -17.21928,6.14411 -34.92758,10.24746 -52.91314,13.5817 -25.12507,4.65768 -50.4015,5.11843 -75.71091,3.78253 -95.39373,-5.0349 -157.399422,-68.50271 -168.543314,-80.78404 -1.719014,-1.89462 -3.60513,-3.65583 -5.171328,-5.66762 -4.574015,-5.8744 -4.198451,-10.22361 1.646586,-14.82128 20.563498,-16.17526 40.60336,-32.98582 62.685906,-47.22318 38.68714,-24.94294 81.2368,-36.37976 126.76585,-38.88035 66.44334,-3.64942 127.52477,15.93902 187.06105,42.44359 8.01591,3.56862 16.81815,8.54809 25.80944,9.91339 1.18087,-3.82543 -1.17564,-9.23787 -2.3687,-12.28188 -17.40116,-44.39685 -31.0532,-89.8896 -37.72874,-137.16303 -6.86372,-48.60591 -2.77121,-96.60923 11.6671,-143.53769 9.31587,-30.27909 24.98689,-57.13692 44.87776,-81.838292 15.14215,-18.804183 31.36684,-36.509449 48.31578,-53.633958 8.81822,-8.909571 12.46174,-8.898508 20.77089,0.16792 63.00175,68.74408 80.32649,166.55805 80.30049,189.79073 -0.87735,82.50624 -26.8283,146.29989 -83.34796,206.42925 -6.94073,7.35461 -12.48131,6.02782 -16.2159,-3.35683 -9.79735,-35.04982 -20.33577,-70.77836 -23.70226,-107.14844 -1.94256,-29.70664 -0.80268,-59.22269 3.88879,-88.60536 0.39984,-2.50426 1.07585,-5.01177 1.99781,-7.37152 0.86737,-2.21979 2.34768,-4.42142 5.1772,-3.80914 2.76839,0.59898 4.15141,2.80296 4.47913,5.59238 0.074,0.62962 0.0356,1.27937 -0.0123,1.91531 -2.81005,37.42623 1.67738,73.98139 12.34496,109.94274 2.86345,9.65285 5.01826,19.55064 8.55199,29.52114 1.63758,0.52918 2.35269,-1.25746 3.05647,-2.70506 10.15806,-20.89501 20.03863,-41.88618 26.76305,-64.23726 10.82169,-35.97019 14.77808,-72.53393 8.4439,-109.66491 -4.34455,-25.46778 -12.10009,-49.93181 -25.21218,-72.57472 -5.30846,-9.16709 -9.10113,-19.15365 -15.48341,-27.83714 -5.11965,-6.965597 -4.99271,-7.049196 -10.44627,-0.630368 -5.93833,6.989528 -11.5004,14.181218 -16.80421,21.675038 -21.3028,30.09891 -36.65372,62.9616 -46.78187,98.33236 -14.97436,52.29552 -11.91746,104.51435 0.5113,156.75794 8.79942,36.98778 21.05313,72.85207 35.16913,108.06659 2.75763,6.87936 8.35041,12.74568 13.17824,18.63426 4.177,5.09471 9.20945,9.47873 13.71386,14.31641 9.50708,10.21052 21.58934,16.63147 34.23522,21.44042 24.68122,9.38571 49.5615,18.29921 74.9444,25.70725 51.01169,14.88773 102.77458,22.83144 155.99388,16.57883 30.66326,-3.60253 59.76377,-13.06059 87.18669,-26.83759 11.38709,-5.72071 21.76791,-13.76663 32.13634,-21.61444 11.14844,-8.43825 20.6231,-18.32467 30.69311,-27.74129 3.43131,-3.20864 3.32703,-5.42358 0.0414,-8.88722 -8.47195,-8.93095 -18.82163,-14.86466 -29.34441,-20.94777 -11.97934,-6.92514 -24.07254,-12.9949 -37.58988,-16.29563 -19.07935,-4.65896 -38.42764,-7.55044 -57.99271,-7.98956 -19.14288,-0.42951 -38.2142,1.88088 -56.91361,5.93842 -20.30035,4.4049 -40.26013,10.21112 -59.73068,17.56954 -11.00345,4.15846 -20.3692,11.1812 -30.274,17.24882 -3.44119,2.10802 -2.03505,4.43098 0.81037,5.63893 4.50094,1.91078 9.08886,3.79788 13.8212,4.95218 38.58049,11.4416 78.2068,18.49592 118.49241,15.67301 4.04103,-0.33136 8.68366,-0.66938 9.51763,3.8779 0.91052,4.96439 -3.97864,6.6546 -7.90252,7.46448 -66.50836,14.41748 -121.06348,8.91157 -191.04307,-16.37751 -9.53906,-3.44724 -11.02118,-4.47289 -5.11511,-12.80517 33.51821,-40.777 82.8755,-66.69278 132.87625,-81.40372 82.45123,-23.52611 163.08614,7.79036 217.09903,39.00614 17.03804,9.84682 32.19103,22.33213 46.00191,36.37267 3.85769,3.92193 4.41184,7.99362 0.13046,12.25808 -78.20952,86.90933 -182.84406,125.4844 -299.50926,107.52576 -39.30103,-7.43528 -77.50319,-18.38846 -114.80611,-32.64517 -10.32628,-3.94649 -20.47934,-8.34423 -30.75795,-12.41883 -2.50014,-0.99112 -5.10196,-2.03323 -8.76059,-1.27016 12.9526,23.88414 24.98089,43.34161 37.44776,70.10684 12.97783,27.86225 20.83973,57.83452 26.22733,88.11529 8.64622,48.59627 6.6637,96.78792 -8.62066,144.06289 -8.61645,26.65103 -23.2285,49.99117 -39.04184,72.87636 -10.22415,14.79643 -22.08716,28.13506 -33.36099,42.00367 -6.07009,7.4673 -8.38497,7.35604 -15.71113,1.38101 -16.54568,-13.49396 -29.22639,-30.41707 -41.08876,-47.82612 -13.66661,-20.0571 -25.67623,-41.09469 -34.07693,-64.09862 -7.49645,-20.52803 -12.14619,-41.66978 -14.33275,-63.2488 -3.08604,-30.46005 -1.55459,-60.75208 5.08821,-90.82327 4.51691,-20.44783 11.98347,-39.73037 21.32825,-58.22772 9.98852,-19.99088 23.82511,-36.69701 39.53785,-52.22771 z"
   id="path1"
   style="fill:#c0cfb2;fill-opacity:1;stroke-width:1.28;stroke-dasharray:none" />
<path
   fill="#000000"
   opacity="1"
   stroke="none"
   d="m 636.99761,350.57374 c -0.52191,1.66749 -0.77109,2.95684 -1.38799,4.03587 -0.99289,7.76957 -6.8003,4.97126 -6.18772,-1.82542 2.21339,-26.62821 7.04475,-52.75226 14.52134,-78.43835 6.51089,-22.36855 16.80342,-42.87967 30.28574,-61.64471 11.4639,-15.95579 25.77859,-29.52832 40.29136,-42.71392 26.42904,-24.01205 58.0508,-38.83114 91.84748,-48.68754 20.61162,-6.0111 42.02385,-9.21072 63.64883,-9.87462 2.76728,-0.0849 5.54636,-0.0361 8.2996,-0.27969 8.21789,-0.72696 10.43489,0.72264 11.21759,9.05658 1.17899,12.55306 0.4725,25.12504 -0.37783,37.69334 -2.17584,32.15828 -8.14819,63.49016 -21.76415,92.86041 -14.38954,31.03893 -35.63599,57.05393 -62.17113,78.43285 -29.44843,23.72603 -61.91801,42.1272 -98.84666,51.78341 -21.39059,5.5932 -43.19252,7.71753 -65.24682,7.52069 -5.70356,-0.0509 -8.34789,-3.36431 -5.74058,-8.20824 21.08278,-43.2174 56.22729,-75.52309 91.39819,-107.04029 5.52312,-4.96555 11.5276,-9.42608 17.54642,-13.79486 2.35179,-1.70708 5.46355,-3.16493 8.18857,-0.50857 2.76912,2.69946 0.54558,5.18851 -1.04216,7.35016 -16.74553,22.79888 -31.7324,46.94971 -51.69642,67.28328 -2.04931,2.08706 -3.86504,4.47138 -4.91184,7.75084 2.83018,1.21386 5.43805,0.35284 8.07161,-0.16804 38.37442,-7.59039 70.27206,-26.37154 96.29728,-55.44927 27.4979,-30.72309 44.11532,-66.49838 50.20412,-107.2212 1.10312,-7.37807 2.28461,-14.74871 3.16775,-22.15403 0.85353,-7.15748 -0.78732,-8.6779 -8.13351,-7.92568 -10.63982,1.08946 -20.95433,3.85788 -31.3146,6.33331 -21.70605,5.1863 -42.18309,13.58404 -61.30385,24.99224 -18.32903,10.93582 -33.18871,26.08609 -46.86415,42.1734 -28.67711,36.99444 -50.67801,84.97853 -67.99645,128.66803 z"
   id="path2"
   style="fill:#c0cfb2;fill-opacity:1;stroke-width:1.27971" />
<path
   fill="#000000"
   opacity="1"
   stroke="none"
   d="m 228.90988,709.22502 c -38.67044,28.28082 -61.14795,66.32468 -71.82197,111.91181 -2.23563,9.54804 -4.59028,19.07778 -5.36466,28.89222 -0.55143,6.98883 0.44514,7.97738 7.21323,7.38973 44.20091,-3.83815 84.44576,-18.288 119.27452,-46.03983 12.45694,-9.92589 23.49709,-21.53916 33.30751,-34.33883 9.29783,-12.1311 18.54362,-24.26885 27.17932,-36.88087 12.83752,-18.74878 25.1191,-37.7268 33.20662,-59.21868 2.11718,-5.62619 3.91524,-12.77361 11.40462,-15.29189 3.25627,4.14661 1.88163,8.44726 1.56988,12.50584 -2.77018,36.06863 -15.87933,68.49334 -33.75496,99.59961 -14.78439,25.72694 -34.05263,47.47852 -56.17559,66.61831 -16.92352,14.64147 -36.28513,25.83556 -57.67022,33.39435 -36.48531,12.89606 -74.01523,17.90924 -112.52202,16.03323 -10.042,-0.48923 -9.45599,-1.17523 -9.45533,-11.32874 10e-4,-20.84627 3.46084,-41.24363 7.78345,-61.41271 4.88547,-22.79555 13.65097,-44.41999 25.15976,-64.71115 10.10957,-17.82423 22.51213,-33.8838 36.88766,-48.75826 28.41436,-29.40076 62.3085,-48.47102 101.70107,-58.24265 27.17902,-6.74204 54.6678,-11.37313 82.80697,-10.97755 1.91726,0.027 3.85911,-0.0742 5.74538,0.19399 3.79931,0.54011 7.91591,0.8791 9.51206,5.23626 1.63327,4.45872 0.1235,8.54174 -2.79861,11.85454 -33.53837,40.21445 -73.29172,73.1426 -115.89239,103.27779 -2.34015,1.64488 -5.08145,4.20111 -7.92838,1.25227 -2.62287,-2.71687 -0.61833,-5.69853 0.86221,-8.21324 3.67041,-6.23435 42.08383,-50.49065 61.17971,-67.69851 1.83312,-1.65186 3.73223,-3.51572 3.77442,-7.64973 -34.06478,4.23373 -66.53253,11.73203 -95.18426,32.60265 z"
   id="path3"
   style="fill:#c0cfb2;fill-opacity:1;stroke-width:1.27971" />
<path
   fill="#000000"
   opacity="1"
   stroke="none"
   d="m 742.46392,733.58018 c 2.45668,2.48507 5.24986,5.16302 2.52729,8.80149 -2.85931,3.82121 -6.60305,2.11934 -9.77067,0.27062 -25.8866,-15.10828 -68.16671,-47.26437 -73.05941,-52.39422 -1.17104,-1.22785 -2.65564,-2.18905 -4.72202,-1.32902 -1.61138,3.17877 0.0343,6.19346 0.9311,9.10782 17.00234,62.72947 55.35669,113.69189 130.05566,131.77861 18.27788,4.42564 36.87702,6.85762 55.71586,6.86566 8.08092,0.003 9.51096,-1.60998 7.6397,-9.65017 -10.90255,-46.84493 -31.337,-88.11291 -69.5473,-119.1332 -12.68054,-10.29442 -27.18227,-17.33746 -41.07563,-25.55903 -14.08991,-8.33792 -28.51948,-15.91791 -43.17602,-23.11806 -14.58728,-7.16612 -29.2725,-14.13505 -43.97722,-21.05796 -2.57394,-1.21177 -5.77606,-2.03019 -5.23817,-5.42593 0.5456,-3.44369 3.95073,-3.41933 6.71544,-3.45762 27.81278,-0.38475 54.61947,4.35159 80.52263,14.79167 19.02411,7.66754 37.73792,15.84056 54.86341,27.20675 50.62792,33.60204 81.8541,80.30282 94.05472,139.80362 2.90943,14.18922 6.58065,28.22624 7.53449,42.7705 0.6907,10.53283 -1.29286,15.06021 -13.32956,15.80892 -41.35583,2.57238 -81.75741,-0.78972 -120.56048,-16.28896 -36.55788,-14.6026 -66.65101,-37.74937 -91.99869,-67.89869 -29.13676,-38.10839 -48.65326,-88.21672 -53.15539,-136.41706 -0.31457,-3.86893 -0.35201,-7.70614 0.9857,-11.3768 1.78762,-4.9051 6.4645,-6.62453 11.39922,-4.88264 43.1145,24.69902 79.90393,63.59589 116.66534,100.7837 z"
   id="path4"
   style="fill:#c0cfb2;fill-opacity:1;stroke-width:1.27971" />
<path
   fill="#000000"
   opacity="1"
   stroke="none"
   d="m 167.74321,171.40378 c 2.04542,28.47746 7.19113,55.84835 19.0258,81.49255 41.70254,90.36507 132.40016,110.62141 150.44831,135.10781 -4.94006,0.35737 -9.74302,0.6872 -14.36302,-0.51947 -30.60084,-7.99191 -60.67936,-17.53108 -87.3837,-35.04036 -45.16667,-29.61469 -69.26535,-72.71743 -70.92699,-75.75182 -21.4959,-39.25395 -31.20424,-81.22234 -30.80137,-125.81133 0.0869,-9.61112 1.00635,-19.14003 1.36972,-28.71386 0.22155,-5.83504 3.69247,-7.57786 8.88312,-7.63087 13.54733,-0.13838 26.63457,2.91447 39.82605,5.41191 23.57886,4.46403 46.35943,11.3251 67.834,22.1327 28.24343,14.21423 51.75436,34.03764 70.97914,59.21807 28.71193,37.60658 46.40899,79.71003 52.11346,126.61136 2.21452,18.20803 1.60554,36.61621 -0.70412,54.87668 -0.85804,6.7843 -3.58487,7.53339 -9.38053,4.08267 -14.11275,-8.40269 -27.05683,-18.06911 -38.54878,-29.93796 -15.90122,-16.42286 -29.34086,-34.70185 -42.52375,-53.24172 -7.02972,-9.88623 -14.11948,-19.72722 -20.13017,-30.28888 -0.62885,-1.1051 -1.48272,-2.11343 -1.9345,-3.28178 -1.10263,-2.85141 -0.78492,-5.57379 1.83255,-7.43671 2.66751,-1.89859 4.65444,-0.23111 6.7317,1.5443 20.45349,17.48127 38.70216,37.2292 57.8324,56.07055 1.75475,1.72817 2.99956,4.17226 5.63214,4.70302 1.46183,-0.53418 1.42911,-1.68001 1.37763,-2.71236 -1.78985,-35.87623 -14.45836,-67.57739 -36.48735,-95.78214 -9.1032,-11.65525 -19.62247,-21.91231 -30.50921,-31.79463 -10.2249,-9.28153 -22.96062,-14.55886 -35.09132,-20.72089 -17.40606,-8.8416 -36.07866,-14.10042 -54.9025,-18.83703 -8.53846,-2.14844 -10.26132,-0.69184 -10.33936,8.1265 -0.0226,2.55648 0.0872,5.11416 0.14065,8.12369 z"
   id="path5"
   style="fill:#c0cfb2;fill-opacity:1;stroke-width:1.27971" />
</svg>
